<svg id="Calque_1" data-name="Calque 1" xmlns="http://www.w3.org/2000/svg" viewBox="0 0 139.98 139.98"><title>rainbow_leber</title><rect width="139.98" height="139.98" rx="28" ry="28" style="fill:#fff"/><path d="M95.33,106.71a6.73,6.73,0,0,1-5.3-2.59L61.56,73.46a6.91,6.91,0,0,1-1.41-5.69,6.73,6.73,0,0,1,6.58-5.34H79.62c6.89,0,9.33-4.32,9.33-8s-2.45-7.67-9.33-7.67H51.05v53a6.87,6.87,0,0,1-6.6,6.95A6.74,6.74,0,0,1,37.58,100V40a6.73,6.73,0,0,1,6.72-6.74H79.61c15,0,22.78,10.62,22.79,21.12a21.12,21.12,0,0,1-5.94,14.81,22.45,22.45,0,0,1-15.91,6.65l20.06,20a6.74,6.74,0,0,1-5.28,10.89Z" style="fill:#6639b7"/><path d="M111.8,21.7a6.48,6.48,0,0,1,6.48,6.46v21.2c2,.28,4,.56,5.91,1,1.27.26,2.54.46,3.79.76l1.83.44V28.16a18,18,0,0,0-18-18v0l-50.1,0A51,51,0,0,0,55.1,21.7h56.7Z" style="fill:#0085ca"/><path d="M61.69,10.17H28.15a18,18,0,0,0-18,18V85.42a117.53,117.53,0,0,1,10.78-9.91l.74-.58V28.19a6.48,6.48,0,0,1,6.46-6.48H55.1A51,51,0,0,1,61.69,10.17Z" style="fill:#34b233"/><path d="M111.83,118.3H74.64a47.58,47.58,0,0,0,7,11.53h30.18a18,18,0,0,0,18-18V56.65c-3.76-.84-7.62-1.5-11.53-2v57.13A6.48,6.48,0,0,1,111.83,118.3Z" style="fill:#cf0072"/><path d="M74.64,118.3H28.18a6.47,6.47,0,0,1-6.48-6.47V88.67a123.32,123.32,0,0,0-11.53,13.1v10.08a18,18,0,0,0,18,18H81.65A47.58,47.58,0,0,1,74.64,118.3Z" style="fill:#ff4500"/></svg>